{
  "accessors": [
    {
      "bufferView": 2,
      "componentType": 5126,
      "count": 2971,
      "max": [
        1.4584851264953613,
        3.0866105556488037,
        2.6314632892608643
      ],
      "min": [
        -12.074329376220703,
        -3.0866105556488037,
        -1.2055656909942627
      ],
      "type": "VEC3"
    },
    {
      "bufferView": 2,
      "byteOffset": 35652,
      "componentType": 5126,
      "count": 2971,
      "max": [
        1.0,
        1.0,
        1.0
      ],
      "min": [
        -1.0,
        -1.0,
        -1.0
      ],
      "type": "VEC3"
    },
    {
      "bufferView": 1,
      "componentType": 5126,
      "count": 2971,
      "max": [
        1.0000590085983276,
        0.9943829774856567
      ],
      "min": [
        0.0036604776978492737,
        0.0047601014375686646
      ],
      "type": "VEC2"
    },
    {
      "bufferView": 0,
      "componentType": 5125,
      "count": 4650,
      "type": "SCALAR"
    },
    {
      "bufferView": 2,
      "byteOffset": 71304,
      "componentType": 5126,
      "count": 303,
      "max": [
        1.0041632652282715,
        2.7954888343811035,
        0.9304289221763611
      ],
      "min": [
        -11.441187858581543,
        -2.7954888343811035,
        0.03643476590514183
      ],
      "type": "VEC3"
    },
    {
      "bufferView": 2,
      "byteOffset": 74940,
      "componentType": 5126,
      "count": 303,
      "max": [
        0.9974672794342041,
        0.9742361307144165,
        0.7548378705978394
      ],
      "min": [
        -0.9242963790893555,
        -0.9742361903190613,
        -0.7607690691947937
      ],
      "type": "VEC3"
    },
    {
      "bufferView": 1,
      "byteOffset": 23768,
      "componentType": 5126,
      "count": 303,
      "max": [
        0.8548564910888672,
        0.9801914691925049
      ],
      "min": [
        0.026492834091186523,
        0.10179747641086578
      ],
      "type": "VEC2"
    },
    {
      "bufferView": 0,
      "byteOffset": 18600,
      "componentType": 5125,
      "count": 465,
      "type": "SCALAR"
    },
    {
      "bufferView": 2,
      "byteOffset": 78576,
      "componentType": 5126,
      "count": 64,
      "max": [
        0.9219135046005249,
        2.863018035888672,
        -0.3425062596797943
      ],
      "min": [
        -11.624458312988281,
        -2.863018035888672,
        -1.2055656909942627
      ],
      "type": "VEC3"
    },
    {
      "bufferView": 2,
      "byteOffset": 79344,
      "componentType": 5126,
      "count": 64,
      "max": [
        0.9779577851295471,
        0.19402053952217102,
        -0.2088029831647873
      ],
      "min": [
        -0.13618025183677673,
        -0.19402050971984863,
        -1.0
      ],
      "type": "VEC3"
    },
    {
      "bufferView": 1,
      "byteOffset": 26192,
      "componentType": 5126,
      "count": 64,
      "max": [
        0.8962457180023193,
        0.8646127581596375
      ],
      "min": [
        0.19179284572601318,
        0.0028310418128967285
      ],
      "type": "VEC2"
    },
    {
      "bufferView": 0,
      "byteOffset": 20460,
      "componentType": 5125,
      "count": 120,
      "type": "SCALAR"
    },
    {
      "bufferView": 2,
      "byteOffset": 80112,
      "componentType": 5126,
      "count": 26,
      "max": [
        -11.420342445373535,
        2.157534122467041,
        0.7362989783287048
      ],
      "min": [
        -11.455302238464355,
        -2.157534122467041,
        0.23328883945941925
      ],
      "type": "VEC3"
    },
    {
      "bufferView": 2,
      "byteOffset": 80424,
      "componentType": 5126,
      "count": 26,
      "max": [
        -0.9987468123435974,
        0.014459745958447456,
        0.0
      ],
      "min": [
        -1.0,
        -0.014459238387644291,
        -0.048412714153528214
      ],
      "type": "VEC3"
    },
    {
      "bufferView": 1,
      "byteOffset": 26704,
      "componentType": 5126,
      "count": 26,
      "max": [
        0.41431254148483276,
        0.9816237688064575
      ],
      "min": [
        0.0408281534910202,
        0.9395233392715454
      ],
      "type": "VEC2"
    },
    {
      "bufferView": 0,
      "byteOffset": 20940,
      "componentType": 5125,
      "count": 42,
      "type": "SCALAR"
    },
    {
      "bufferView": 2,
      "byteOffset": 80736,
      "componentType": 5126,
      "count": 1398,
      "max": [
        0.9749279022216797,
        0.9999998807907104,
        6.390049934387207
      ],
      "min": [
        -0.9749279022216797,
        -1.0000001192092896,
        -6.390049934387207
      ],
      "type": "VEC3"
    },
    {
      "bufferView": 2,
      "byteOffset": 97512,
      "componentType": 5126,
      "count": 1398,
      "max": [
        1.0,
        0.9749280214309692,
        1.0
      ],
      "min": [
        -1.0,
        -0.9749280214309692,
        -1.0
      ],
      "type": "VEC3"
    },
    {
      "bufferView": 1,
      "byteOffset": 26912,
      "componentType": 5126,
      "count": 1398,
      "max": [
        0.9016191959381104,
        0.8742313981056213
      ],
      "min": [
        0.003321811556816101,
        0.49462494254112244
      ],
      "type": "VEC2"
    },
    {
      "bufferView": 0,
      "byteOffset": 21108,
      "componentType": 5125,
      "count": 2208,
      "type": "SCALAR"
    },
    {
      "bufferView": 2,
      "byteOffset": 114288,
      "componentType": 5126,
      "count": 1384,
      "max": [
        8.365400314331055,
        0.7906897068023682,
        6.3096771240234375
      ],
      "min": [
        6.572259426116943,
        -1.0485650300979614,
        -6.3096771240234375
      ],
      "type": "VEC3"
    },
    {
      "bufferView": 2,
      "byteOffset": 130896,
      "componentType": 5126,
      "count": 1384,
      "max": [
        1.0,
        0.974928081035614,
        1.0
      ],
      "min": [
        -1.0,
        -0.9749280214309692,
        -1.0
      ],
      "type": "VEC3"
    },
    {
      "bufferView": 1,
      "byteOffset": 38096,
      "componentType": 5126,
      "count": 1384,
      "max": [
        0.9016191959381104,
        0.4785436689853668
      ],
      "min": [
        0.003321811556816101,
        0.004762917757034302
      ],
      "type": "VEC2"
    },
    {
      "bufferView": 0,
      "byteOffset": 29940,
      "componentType": 5125,
      "count": 2208,
      "type": "SCALAR"
    },
    {
      "bufferView": 2,
      "byteOffset": 147504,
      "componentType": 5126,
      "count": 156,
      "max": [
        1.6709644794464111,
        2.946425676345825,
        0.010335318744182587
      ],
      "min": [
        -0.04557514190673828,
        -2.946425676345825,
        -0.1365775763988495
      ],
      "type": "VEC3"
    },
    {
      "bufferView": 2,
      "byteOffset": 149376,
      "componentType": 5126,
      "count": 156,
      "max": [
        0.8334848880767822,
        0.9990385174751282,
        1.0
      ],
      "min": [
        -0.9943355917930603,
        -0.9990384578704834,
        -1.0
      ],
      "type": "VEC3"
    },
    {
      "bufferView": 1,
      "byteOffset": 49168,
      "componentType": 5126,
      "count": 156,
      "max": [
        0.875,
        1.0
      ],
      "min": [
        0.125,
        0.0
      ],
      "type": "VEC2"
    },
    {
      "bufferView": 0,
      "byteOffset": 38772,
      "componentType": 5125,
      "count": 240,
      "type": "SCALAR"
    }
  ],
  "asset": {
    "extras": {
      "author": "king1of1kings (https://sketchfab.com/king1of1kings)",
      "license": "CC-BY-4.0 (http://creativecommons.org/licenses/by/4.0/)",
      "source": "https://sketchfab.com/3d-models/car-lowpoly-1d641de88a28449b832eb3d895f73b70",
      "title": "Car LowPoly"
    },
    "generator": "Sketchfab-13.74.0",
    "version": "2.0"
  },
  "bufferViews": [
    {
      "buffer": 0,
      "byteLength": 39732,
      "name": "floatBufferViews",
      "target": 34963
    },
    {
      "buffer": 0,
      "byteLength": 50416,
      "byteOffset": 39732,
      "byteStride": 8,
      "name": "floatBufferViews",
      "target": 34962
    },
    {
      "buffer": 0,
      "byteLength": 151248,
      "byteOffset": 90148,
      "byteStride": 12,
      "name": "floatBufferViews",
      "target": 34962
    }
  ],
  "buffers": [
    {
      "byteLength": 241396,
      "uri": "scene.bin"
    }
  ],
  "extensionsUsed": [
    "KHR_materials_clearcoat"
  ],
  "images": [
    {
      "uri": "textures/carro_baseColor.png"
    },
    {
      "uri": "textures/pneu.001_baseColor.png"
    }
  ],
  "materials": [
    {
      "doubleSided": true,
      "extensions": {
        "KHR_materials_clearcoat": {
          "clearcoatFactor": 0.24751284432253454,
          "clearcoatRoughnessFactor": 0.3758033428838482
        }
      },
      "name": "carro",
      "pbrMetallicRoughness": {
        "baseColorTexture": {
          "index": 0
        },
        "metallicFactor": 0.0,
        "roughnessFactor": 0.4857666273649742
      }
    },
    {
      "doubleSided": true,
      "emissiveFactor": [
        1.0,
        1.0,
        0.24891876306752286
      ],
      "name": "farol",
      "pbrMetallicRoughness": {
        "baseColorFactor": [
          0.8,
          0.8,
          0.8,
          1.0
        ],
        "metallicFactor": 0.0,
        "roughnessFactor": 0.8040408206
      }
    },
    {
      "doubleSided": true,
      "name": "fundo",
      "pbrMetallicRoughness": {
        "baseColorFactor": [
          0.0,
          0.0,
          0.0,
          1.0
        ],
        "metallicFactor": 0.0
      }
    },
    {
      "doubleSided": true,
      "emissiveFactor": [
        1.0,
        0.001003632073738832,
        0.001003632073738832
      ],
      "name": "lanterna",
      "pbrMetallicRoughness": {
        "baseColorFactor": [
          0.8,
          0.8,
          0.8,
          1.0
        ],
        "metallicFactor": 0.0,
        "roughnessFactor": 0.8040408206
      }
    },
    {
      "doubleSided": true,
      "name": "pneu.001",
      "pbrMetallicRoughness": {
        "baseColorTexture": {
          "index": 1
        },
        "metallicFactor": 0.0,
        "roughnessFactor": 0.8211145618
      }
    },
    {
      "doubleSided": true,
      "name": "material_0",
      "pbrMetallicRoughness": {
        "baseColorTexture": {
          "index": 1
        },
        "metallicFactor": 0.0,
        "roughnessFactor": 0.8211145618000169
      }
    },
    {
      "doubleSided": true,
      "name": "Material",
      "pbrMetallicRoughness": {
        "baseColorFactor": [
          0.457531,
          0.457531,
          0.457531,
          1.0
        ],
        "metallicFactor": 0.0,
        "roughnessFactor": 0.8976929582
      }
    }
  ],
  "meshes": [
    {
      "name": "Cube.001_carro_0",
      "primitives": [
        {
          "attributes": {
            "NORMAL": 1,
            "POSITION": 0,
            "TEXCOORD_0": 2
          },
          "indices": 3,
          "material": 0,
          "mode": 4
        }
      ]
    },
    {
      "name": "Cube.001_farol_0",
      "primitives": [
        {
          "attributes": {
            "NORMAL": 5,
            "POSITION": 4,
            "TEXCOORD_0": 6
          },
          "indices": 7,
          "material": 1,
          "mode": 4
        }
      ]
    },
    {
      "name": "Cube.001_fundo_0",
      "primitives": [
        {
          "attributes": {
            "NORMAL": 9,
            "POSITION": 8,
            "TEXCOORD_0": 10
          },
          "indices": 11,
          "material": 2,
          "mode": 4
        }
      ]
    },
    {
      "name": "Cube.001_lanterna_0",
      "primitives": [
        {
          "attributes": {
            "NORMAL": 13,
            "POSITION": 12,
            "TEXCOORD_0": 14
          },
          "indices": 15,
          "material": 3,
          "mode": 4
        }
      ]
    },
    {
      "name": "Cylinder.001_pneu.001_0",
      "primitives": [
        {
          "attributes": {
            "NORMAL": 17,
            "POSITION": 16,
            "TEXCOORD_0": 18
          },
          "indices": 19,
          "material": 4,
          "mode": 4
        }
      ]
    },
    {
      "name": "Cylinder.001_pneu_0",
      "primitives": [
        {
          "attributes": {
            "NORMAL": 21,
            "POSITION": 20,
            "TEXCOORD_0": 22
          },
          "indices": 23,
          "material": 5,
          "mode": 4
        }
      ]
    },
    {
      "name": "Cube.002_Material_0",
      "primitives": [
        {
          "attributes": {
            "NORMAL": 25,
            "POSITION": 24,
            "TEXCOORD_0": 26
          },
          "indices": 27,
          "material": 6,
          "mode": 4
        }
      ]
    }
  ],
  "nodes": [
    {
      "children": [
        1
      ],
      "matrix": [
        1.0,
        0.0,
        0.0,
        0.0,
        0.0,
        2.220446049250313e-16,
        -1.0,
        0.0,
        0.0,
        1.0,
        2.220446049250313e-16,
        0.0,
        0.0,
        0.0,
        0.0,
        1.0
      ],
      "name": "Sketchfab_model"
    },
    {
      "children": [
        2
      ],
      "matrix": [
        0.009999999776482582,
        0.0,
        0.0,
        0.0,
        0.0,
        0.0,
        0.009999999776482582,
        0.0,
        0.0,
        -0.009999999776482582,
        0.0,
        0.0,
        0.0,
        0.0,
        0.0,
        1.0
      ],
      "name": "5ba0e7c276fb4319b79e3e5f16e72e92.fbx"
    },
    {
      "children": [
        3,
        6,
        11,
        14,
        16,
        18,
        21
      ],
      "name": "RootNode"
    },
    {
      "children": [
        4
      ],
      "matrix": [
        -29.08647719990347,
        -5.518906457566863,
        -95.51711910171437,
        0.0,
        56.63930913109449,
        79.46723428563203,
        -21.83912397841966,
        0.0,
        77.11008775993375,
        -60.45246356562044,
        -19.98834696773717,
        0.0,
        407.6245422363281,
        590.38623046875,
        -100.54539489746094,
        1.0
      ],
      "name": "Light"
    },
    {
      "children": [
        5
      ],
      "matrix": [
        1.0,
        0.0,
        0.0,
        0.0,
        0.0,
        2.220446049250313e-16,
        1.0,
        0.0,
        0.0,
        -1.0,
        2.220446049250313e-16,
        0.0,
        0.0,
        0.0,
        0.0,
        1.0
      ],
      "name": "Object_4"
    },
    {
      "name": "Object_5"
    },
    {
      "children": [
        7,
        8,
        9,
        10
      ],
      "matrix": [
        100.0,
        0.0,
        0.0,
        0.0,
        0.0,
        -1.629206793918314e-05,
        -99.99999999999868,
        0.0,
        0.0,
        99.99999999999868,
        -1.629206793918314e-05,
        0.0,
        0.0,
        0.0,
        0.0,
        1.0
      ],
      "name": "Cube.001"
    },
    {
      "mesh": 0,
      "name": "Cube.001_carro_0"
    },
    {
      "mesh": 1,
      "name": "Cube.001_farol_0"
    },
    {
      "mesh": 2,
      "name": "Cube.001_fundo_0"
    },
    {
      "mesh": 3,
      "name": "Cube.001_lanterna_0"
    },
    {
      "children": [
        12,
        13
      ],
      "matrix": [
        108.73970031738281,
        0.0,
        0.0,
        0.0,
        0.0,
        108.7397003173827,
        4.75316326275664e-06,
        0.0,
        0.0,
        -2.0364542254749875e-06,
        46.58864212036128,
        0.0,
        -941.7393798828125,
        -69.6514892578125,
        0.0,
        1.0
      ],
      "name": "Cylinder.001"
    },
    {
      "mesh": 4,
      "name": "Cylinder.001_pneu.001_0"
    },
    {
      "mesh": 5,
      "name": "Cylinder.001_pneu_0"
    },
    {
      "children": [
        15
      ],
      "matrix": [
        -73.42758128910877,
        -44.52713526261749,
        51.241809154800954,
        0.0,
        -36.514803737626835,
        89.5395662418219,
        25.482056142096965,
        0.0,
        -57.2281232577586,
        1.1443389717609372e-05,
        -82.00573383926157,
        0.0,
        1336.2918701171875,
        1130.2379150390625,
        -1454.8333740234375,
        1.0
      ],
      "name": "Camera.001"
    },
    {
      "name": "Object_15"
    },
    {
      "children": [
        17
      ],
      "matrix": [
        100.0,
        0.0,
        0.0,
        0.0,
        0.0,
        -1.629206793918314e-05,
        -99.99999999999868,
        0.0,
        0.0,
        99.99999999999868,
        -1.629206793918314e-05,
        0.0,
        0.0,
        0.0,
        0.0,
        1.0
      ],
      "name": "Cube.002"
    },
    {
      "mesh": 6,
      "name": "Cube.002_Material_0"
    },
    {
      "children": [
        19
      ],
      "matrix": [
        74.95813288303557,
        64.91201112148006,
        12.950314773510174,
        0.0,
        -62.28721799147827,
        62.553935565857614,
        46.98200874785542,
        0.0,
        22.39603176714197,
        -43.28322073740016,
        87.32113469076465,
        0.0,
        -327.67523193359375,
        593.3602905273438,
        146.33175659179688,
        1.0
      ],
      "name": "Area"
    },
    {
      "children": [
        20
      ],
      "matrix": [
        1.0,
        0.0,
        0.0,
        0.0,
        0.0,
        2.220446049250313e-16,
        1.0,
        0.0,
        0.0,
        -1.0,
        2.220446049250313e-16,
        0.0,
        0.0,
        0.0,
        0.0,
        1.0
      ],
      "name": "Object_19"
    },
    {
      "name": "Object_20"
    },
    {
      "children": [
        22
      ],
      "matrix": [
        -3.7250190378224963,
        98.42459662839597,
        17.283649428994156,
        0.0,
        -53.80604117329586,
        12.599035262889636,
        -83.3437114826431,
        0.0,
        -84.20827850361701,
        -12.404215701202464,
        52.48905851980312,
        0.0,
        -1238.2337646484375,
        133.7145233154297,
        -1130.0595703125,
        1.0
      ],
      "name": "Area.001"
    },
    {
      "children": [
        23
      ],
      "matrix": [
        1.0,
        0.0,
        0.0,
        0.0,
        0.0,
        2.220446049250313e-16,
        1.0,
        0.0,
        0.0,
        -1.0,
        2.220446049250313e-16,
        0.0,
        0.0,
        0.0,
        0.0,
        1.0
      ],
      "name": "Object_22"
    },
    {
      "name": "Object_23"
    }
  ],
  "samplers": [
    {
      "magFilter": 9729,
      "minFilter": 9987,
      "wrapS": 10497,
      "wrapT": 10497
    }
  ],
  "scene": 0,
  "scenes": [
    {
      "name": "Sketchfab_Scene",
      "nodes": [
        0
      ]
    }
  ],
  "textures": [
    {
      "sampler": 0,
      "source": 0
    },
    {
      "sampler": 0,
      "source": 1
    }
  ]
}
